<svg xmlns="http://www.w3.org/2000/svg" width="22" height="19" fill="none"><path fill="#8091A7" d="M18.008.992H3.992c-1.094 0-2.031.39-2.812 1.172C.398 2.945.008 3.891.008 5v10.008c0 1.094.39 2.031 1.172 2.812.78.782 1.718 1.172 2.812 1.172h14.016c1.094 0 2.031-.39 2.812-1.172.782-.78 1.172-1.718 1.172-2.812V5c0-1.11-.39-2.055-1.172-2.836-.78-.781-1.718-1.172-2.812-1.172ZM20 15.008c0 .547-.195 1.015-.586 1.406-.39.39-.86.586-1.406.586H3.992a1.918 1.918 0 0 1-1.406-.586c-.39-.39-.586-.86-.586-1.406V5c0-.547.195-1.016.586-1.406.39-.39.86-.586 1.406-.586h14.016c.547 0 1.015.195 1.406.586.39.39.586.86.586 1.406v10.008Zm-1.313-6.211a.593.593 0 0 1-.07.14l-.094.094-3 3a.89.89 0 0 1-.234.164.756.756 0 0 1-.281.047.782.782 0 0 1-.54-.21.782.782 0 0 1-.21-.54c0-.11.015-.203.047-.281a.89.89 0 0 1 .164-.234l1.71-1.735H9.993a.782.782 0 0 1-.539-.21.73.73 0 0 1-.21-.54c0-.203.07-.375.21-.515a.741.741 0 0 1 .54-.235h6.187l-1.711-1.71a.89.89 0 0 1-.164-.235.883.883 0 0 1-.047-.281c0-.204.07-.375.21-.516a.74.74 0 0 1 .54-.234c.11 0 .203.023.281.07a.588.588 0 0 1 .234.14l3 3c.079.063.133.141.165.235.046.094.07.187.07.281a.52.52 0 0 1-.024.164c-.015.047-.03.094-.047.14Zm-5.93 2.695a.693.693 0 0 1-.234.54.701.701 0 0 1-.515.21H5.82l1.711 1.735c.078.062.133.14.164.234.047.094.07.195.07.305a.741.741 0 0 1-.234.539.701.701 0 0 1-.515.21.96.96 0 0 1-.305-.046.691.691 0 0 1-.234-.188l-3-3a.691.691 0 0 1-.188-.234.958.958 0 0 1 0-.586.692.692 0 0 1 .188-.234l3-3a.624.624 0 0 1 .21-.141.672.672 0 0 1 .305-.07c.203 0 .375.078.516.234.156.14.234.313.234.516a.624.624 0 0 1-.07.28.589.589 0 0 1-.14.235L5.82 10.742h6.188c.203 0 .375.078.515.235.157.14.235.312.235.515Z"/></svg>